<svg aria-hidden="true" style="position: absolute; width: 0; height: 0; overflow: visible;" version="1.1" xmlns="http://www.w3.org/2000/svg" xmlns:xlink="http://www.w3.org/1999/xlink">
<defs>

<symbol id="icon-telegram" viewBox="0 0 48 48">
    <path d="M24 0C10.752 0 0 10.752 0 24C0 37.248 10.752 48 24 48C37.248 48 48 37.248 48 24C48 10.752 37.248 0 24 0ZM35.136 16.32C34.776 20.112 33.216 29.328 32.424 33.576C32.088 35.376 31.416 35.976 30.792 36.048C29.4 36.168 28.344 35.136 27 34.248C24.888 32.856 23.688 31.992 21.648 30.648C19.272 29.088 20.808 28.224 22.176 26.832C22.536 26.472 28.68 20.88 28.8 20.376C28.8167 20.2997 28.8145 20.2204 28.7935 20.1451C28.7726 20.0698 28.7337 20.0008 28.68 19.944C28.536 19.824 28.344 19.872 28.176 19.896C27.96 19.944 24.6 22.176 18.048 26.592C17.088 27.24 16.224 27.576 15.456 27.552C14.592 27.528 12.96 27.072 11.736 26.664C10.224 26.184 9.048 25.92 9.144 25.08C9.192 24.648 9.792 24.216 10.92 23.76C17.928 20.712 22.584 18.696 24.912 17.736C31.584 14.952 32.952 14.472 33.864 14.472C34.056 14.472 34.512 14.52 34.8 14.76C35.04 14.952 35.112 15.216 35.136 15.408C35.112 15.552 35.16 15.984 35.136 16.32Z" fill="black"/>
</symbol>

<symbol id="icon-instagram" viewBox="0 0 44 44">
    <path d="M24.2616 0.00270678C25.867 -0.0034535 27.4723 0.012681 29.0772 0.0511053L29.504 0.0665047C29.9967 0.0841041 30.4829 0.106103 31.0703 0.132502C33.411 0.242499 35.0081 0.612086 36.4094 1.15547C37.8613 1.71425 39.0845 2.47102 40.3076 3.69418C41.426 4.79328 42.2915 6.12278 42.8441 7.59025C43.3874 8.9916 43.757 10.5909 43.867 12.9317C43.8934 13.5168 43.9154 14.0052 43.933 14.498L43.9462 14.9248C43.9853 16.529 44.0022 18.1336 43.9968 19.7382L43.999 21.3794V24.2613C44.0044 25.8667 43.9876 27.472 43.9484 29.0769L43.9352 29.5037C43.9176 29.9965 43.8956 30.4827 43.8692 31.07C43.7592 33.4108 43.3852 35.0079 42.8441 36.4093C42.2933 37.8783 41.4276 39.2089 40.3076 40.3075C39.2076 41.4258 37.8774 42.2913 36.4094 42.8441C35.0081 43.3874 33.411 43.757 31.0703 43.867C30.4829 43.8934 29.9967 43.9154 29.504 43.933L29.0772 43.9462C27.4723 43.9853 25.867 44.0022 24.2616 43.9968L22.6205 43.999H19.7409C18.1355 44.0044 16.5302 43.9876 14.9253 43.9484L14.4985 43.9352C13.9763 43.9163 13.4542 43.8943 12.9322 43.8692C10.5915 43.7592 8.99441 43.3852 7.59088 42.8441C6.12286 42.2926 4.79315 41.4269 3.69488 40.3075C2.57524 39.2082 1.70887 37.8778 1.15621 36.4093C0.612838 35.0079 0.243257 33.4108 0.133262 31.07C0.108762 30.548 0.086763 30.0259 0.0672659 29.5037L0.0562667 29.0769C0.0157087 27.472 -0.00262567 25.8667 0.00126934 24.2613V19.7382C-0.00487047 18.1336 0.0112637 16.529 0.049667 14.9248L0.0650662 14.498C0.0826653 14.0052 0.104664 13.5168 0.131063 12.9317C0.241057 10.5887 0.610638 8.9938 1.15401 7.59025C1.707 6.12206 2.57506 4.79292 3.69708 3.69638C4.79459 2.57607 6.12347 1.70891 7.59088 1.15547C8.99441 0.612086 10.5893 0.242499 12.9322 0.132502L14.4985 0.0665047L14.9253 0.0555054C16.5294 0.0149669 18.134 -0.00336776 19.7387 0.000507012L24.2616 0.00270678ZM22.0001 11.0023C20.5427 10.9817 19.0958 11.251 17.7433 11.7945C16.3909 12.3379 15.1599 13.1448 14.122 14.1681C13.0841 15.1915 12.2599 16.4109 11.6974 17.7556C11.1348 19.1002 10.8452 20.5433 10.8452 22.0009C10.8452 23.4584 11.1348 24.9015 11.6974 26.2461C12.2599 27.5908 13.0841 28.8102 14.122 29.8336C15.1599 30.8569 16.3909 31.6638 17.7433 32.2073C19.0958 32.7507 20.5427 33.02 22.0001 32.9994C24.9174 32.9994 27.7151 31.8405 29.7779 29.7777C31.8407 27.7148 32.9996 24.917 32.9996 21.9998C32.9996 19.0825 31.8407 16.2847 29.7779 14.2218C27.7151 12.159 24.9174 11.0023 22.0001 11.0023ZM22.0001 15.4022C22.8768 15.386 23.7479 15.5447 24.5626 15.869C25.3772 16.1933 26.1191 16.6767 26.7448 17.2909C27.3706 17.9051 27.8676 18.6379 28.207 19.4464C28.5464 20.2549 28.7212 21.1229 28.7214 21.9997C28.7215 22.8766 28.547 23.7446 28.2078 24.5533C27.8687 25.3619 27.3719 26.0948 26.7464 26.7092C26.1208 27.3237 25.3791 27.8073 24.5646 28.1318C23.7501 28.4564 22.879 28.6154 22.0023 28.5995C20.252 28.5995 18.5734 27.9042 17.3357 26.6665C16.098 25.4288 15.4027 23.7501 15.4027 21.9998C15.4027 20.2494 16.098 18.5707 17.3357 17.333C18.5734 16.0953 20.252 15.4 22.0023 15.4L22.0001 15.4022ZM33.5495 7.70245C32.8398 7.73085 32.1687 8.03277 31.6766 8.54495C31.1845 9.05714 30.9097 9.73987 30.9097 10.4502C30.9097 11.1604 31.1845 11.8432 31.6766 12.3553C32.1687 12.8675 32.8398 13.1695 33.5495 13.1979C34.2789 13.1979 34.9783 12.9081 35.494 12.3924C36.0097 11.8767 36.2994 11.1773 36.2994 10.448C36.2994 9.71863 36.0097 9.01918 35.494 8.50347C34.9783 7.98777 34.2789 7.69805 33.5495 7.69805V7.70245Z" fill="black"/>    
</symbol>

<symbol id="icon-facebook" viewBox="0 0 48 48">
   <path d="M48 24.0602C48 10.7789 37.248 0 24 0C10.752 0 0 10.7789 0 24.0602C0 35.7053 8.256 45.4015 19.2 47.6391V31.2782H14.4V24.0602H19.2V18.0451C19.2 13.4015 22.968 9.62406 27.6 9.62406H33.6V16.8421H28.8C27.48 16.8421 26.4 17.9248 26.4 19.2481V24.0602H33.6V31.2782H26.4V48C38.52 46.797 48 36.5474 48 24.0602Z" fill="black"/>
</symbol>

<symbol id="icon-arrow" viewBox="0 0 48 48">
    <path d="M1 41L45 1M45 1H1M45 1V37.5812" stroke="#090909" stroke-width="2"/>
</symbol>

<symbol id="icon-phone" viewBox="0 0 32 32">
<path d="M22 20c-2 2-2 4-4 4s-4-2-6-4-4-4-4-6 2-2 4-4-4-8-6-8-6 6-6 6c0 4 4.109 12.109 8 16s12 8 16 8c0 0 6-4 6-6s-6-8-8-6z"></path>
</symbol>

<symbol id="icon-clock" viewBox="0 0 32 32">
<path d="M16 0c-8.837 0-16 7.163-16 16s7.163 16 16 16 16-7.163 16-16-7.163-16-16-16zM20.586 23.414l-6.586-6.586v-8.828h4v7.172l5.414 5.414-2.829 2.829z"></path>
</symbol>

<symbol id="icon-location" viewBox="0 0 32 32">
<path d="M16 0c-5.523 0-10 4.477-10 10 0 10 10 22 10 22s10-12 10-22c0-5.523-4.477-10-10-10zM16 16.125c-3.383 0-6.125-2.742-6.125-6.125s2.742-6.125 6.125-6.125 6.125 2.742 6.125 6.125-2.742 6.125-6.125 6.125zM12.125 10c0-2.14 1.735-3.875 3.875-3.875s3.875 1.735 3.875 3.875c0 2.14-1.735 3.875-3.875 3.875s-3.875-1.735-3.875-3.875z"></path>
</symbol>

<symbol id="icon-mail" viewBox="0 0 32 32">
<path d="M7.077 10.923l0.808-0.808 8.615 7.385 8.615-7.385 0.808 0.808-9.423 8.077-9.423-8.077zM6.004 8c-1.107 0-2.004 0.895-2.004 1.994v12.012c0 1.101 0.89 1.994 2.004 1.994h20.993c1.107 0 2.004-0.895 2.004-1.994v-12.012c0-1.101-0.89-1.994-2.004-1.994h-20.993z"></path>
</symbol>

<symbol id="icon-clock-why" viewBox="0 0 24 24">
<path d="M23 12c0-3.037-1.232-5.789-3.222-7.778s-4.741-3.222-7.778-3.222-5.789 1.232-7.778 3.222-3.222 4.741-3.222 7.778 1.232 5.789 3.222 7.778 4.741 3.222 7.778 3.222 5.789-1.232 7.778-3.222 3.222-4.741 3.222-7.778zM21 12c0 2.486-1.006 4.734-2.636 6.364s-3.878 2.636-6.364 2.636-4.734-1.006-6.364-2.636-2.636-3.878-2.636-6.364 1.006-4.734 2.636-6.364 3.878-2.636 6.364-2.636 4.734 1.006 6.364 2.636 2.636 3.878 2.636 6.364zM11 6v6c0 0.389 0.222 0.727 0.553 0.894l4 2c0.494 0.247 1.095 0.047 1.342-0.447s0.047-1.095-0.447-1.342l-3.448-1.723v-5.382c0-0.552-0.448-1-1-1s-1 0.448-1 1z"></path>
</symbol>

<symbol id="icon-burger-menu" viewBox="0 0 20 20">
<path d="M0 3h20v2h-20v-2zM0 9h20v2h-20v-2zM0 15h20v2h-20v-2z"></path>
</symbol>

</defs>
</svg>
